# xmcd
#
# Track frame offsets:
# 150
# 16827
# 41577
#
# Disc length: 767 seconds
#
#
# Revision: 0
# Processed by: cddbd v1.4PL0 Copyright (c) Steve Scherf et al.
# Submitted via: FreeRIP 2.51 
#
DISCID=1802fd03
DTITLE=Iris DeMent - Sweet is the Melody
DYEAR=1994
DGENRE=
TTITLE0=Sweet is the Melody
TTITLE1=French Boy (live)
TTITLE2=Keep on the Sunny Side (live)
EXTD=
EXTT0=
EXTT1=
EXTT2=
PLAYORDER=
